<svg xmlns="http://www.w3.org/2000/svg" xmlns:xlink="http://www.w3.org/1999/xlink" viewBox="0 0 143.39 101.11"><defs><style>.cls-1{fill:url(#linear-gradient);}.cls-2{fill:url(#linear-gradient-2);}</style><linearGradient id="linear-gradient" x1="-3.89" y1="46.59" x2="138.37" y2="11.81" gradientUnits="userSpaceOnUse"><stop offset="0" stop-color="#408af7"/><stop offset="0.56" stop-color="#6d4df9"/><stop offset="1" stop-color="#46a7f8"/></linearGradient><linearGradient id="linear-gradient-2" x1="7.47" y1="93.09" x2="149.74" y2="58.32" gradientUnits="userSpaceOnUse"><stop offset="0" stop-color="#408af7"/><stop offset="0.56" stop-color="#7e30f9"/><stop offset="1" stop-color="#46a7f8"/></linearGradient></defs><g id="Layer_2" data-name="Layer 2"><g id="Layer_1-2" data-name="Layer 1"><path class="cls-1" d="M89.07,23.58c1.5,9.68-2.65,17-9.4,23a55.12,55.12,0,0,1-10.45,7.35C55.43,61.39,40.55,65.4,25,67a56.47,56.47,0,0,1-17.6-.46C4.48,66,1.48,65.2.35,62s.8-5.9,2.89-8.09c4.61-4.85,10.2-8.44,16-11.66,1.27-.71,2-.34,1.9,1.17-.18,2.5-.38,4.91-3.11,6.32A11.79,11.79,0,0,0,14.52,53c-1.55,1.94-1.1,3.91,1.25,4.46a33.64,33.64,0,0,0,7.59.55c.33,0,1-1.25.95-1.88a55.32,55.32,0,0,1,3.18-23.47A51,51,0,0,1,75.62,0C93.09.39,106.71,8,117,21.91c.91,1.24,1.54,2.7,2.48,3.91.37.47,1.49.95,1.85.73a41.43,41.43,0,0,0,6.29-4.4c1.72-1.57,1.18-3.4-1.11-3.95a43.42,43.42,0,0,0-6.56-.69c-1.47-.11-4.68-2.62-4.75-4a1.67,1.67,0,0,1,1.1-1.23c7.27-.76,14.57-1.5,21.71.7,5.79,1.78,7.14,6.32,3.08,10.86-9.79,10.93-23.84,15.09-38.57,9.27a26.41,26.41,0,0,1-12-8.75,3.63,3.63,0,0,0-.61-.63C89.81,23.64,89.63,23.66,89.07,23.58Z"/><path class="cls-2" d="M106,68.73c-.15-1.71-.29-2.79-.32-3.87-.29-10.37,5-17.71,12.89-23.6,1.12-.83,2.38-1.48,3.54-2.25,1.49-1,2.3-.83,2.73,1.12a49.58,49.58,0,0,1-3.5,32.17A49.17,49.17,0,0,1,73.1,101a27,27,0,0,1-15.21-5.34c-9.38-7.13-10.38-19.89-2-28.74C63.69,58.77,73.5,56,84.51,57c6.22.55,12,2.28,16.82,6.53A63.68,63.68,0,0,1,106,68.73Z"/></g></g></svg>