<svg xmlns="http://www.w3.org/2000/svg" xmlns:xlink="http://www.w3.org/1999/xlink" viewBox="0 0 453.19 138.85"><defs><style>.cls-1{fill:url(#linear-gradient);}.cls-2{fill:url(#linear-gradient-2);}.cls-3{fill:#2d2d2d;}.cls-4{fill:#975af9;}</style><linearGradient id="linear-gradient" x1="-5.35" y1="63.97" x2="190.02" y2="16.22" gradientUnits="userSpaceOnUse"><stop offset="0" stop-color="#408af7"/><stop offset="0.56" stop-color="#6d4df9"/><stop offset="1" stop-color="#46a7f8"/></linearGradient><linearGradient id="linear-gradient-2" x1="10.26" y1="127.84" x2="205.63" y2="80.08" gradientUnits="userSpaceOnUse"><stop offset="0" stop-color="#408af7"/><stop offset="0.56" stop-color="#7e30f9"/><stop offset="1" stop-color="#46a7f8"/></linearGradient></defs><g id="Layer_2" data-name="Layer 2"><g id="Layer_1-2" data-name="Layer 1"><path class="cls-1" d="M122.31,32.38c2.06,13.29-3.64,23.34-12.9,31.59A76.39,76.39,0,0,1,95.05,74.06c-18.94,10.25-39.36,15.75-60.72,18-8.08.85-16.16,1-24.16-.65-4-.83-8.14-1.89-9.69-6.3C-1.13,80.52,1.57,77,4.44,74c6.35-6.66,14-11.59,22-16,1.75-1,2.76-.47,2.61,1.61-.25,3.44-.52,6.74-4.27,8.68a16.41,16.41,0,0,0-4.87,4.47c-2.12,2.67-1.5,5.38,1.72,6.14a47.64,47.64,0,0,0,10.43.75c.45,0,1.37-1.72,1.31-2.59a75.91,75.91,0,0,1,4.36-32.23C47.84,17.85,75.08-.61,103.85,0c24,.52,42.69,10.91,56.76,30.07,1.25,1.7,2.12,3.7,3.42,5.36.5.65,2,1.31,2.53,1a55.65,55.65,0,0,0,8.63-6.05c2.36-2.15,1.62-4.67-1.52-5.41a58.56,58.56,0,0,0-9-.95c-2-.15-6.43-3.61-6.53-5.52a2.33,2.33,0,0,1,1.51-1.7c10-1,20-2,29.82,1,7.95,2.45,9.8,8.68,4.23,14.91-13.44,15-32.74,20.73-53,12.74-6.54-2.59-12.2-6.31-16.43-12a4.89,4.89,0,0,0-.84-.86C123.33,32.46,123.09,32.5,122.31,32.38Z"/><path class="cls-2" d="M145.54,94.39c-.21-2.36-.41-3.84-.45-5.32-.39-14.24,6.85-24.32,17.71-32.41,1.54-1.15,3.26-2,4.86-3.1,2-1.34,3.16-1.13,3.74,1.55a68,68,0,0,1-4.8,44.17c-12.09,26-37.55,41.1-66.21,39.45a37.22,37.22,0,0,1-20.89-7.34c-12.89-9.79-14.25-27.31-2.7-39.46,10.67-11.22,24.14-15,39.26-13.7,8.53.76,16.54,3.14,23.09,9C141.29,89.11,143,91.5,145.54,94.39Z"/><path class="cls-3" d="M250.57,42.75l-8,33.35h-10l-5.33-22.31L221.89,76.1h-10l-8-33.35h8.77L217,66.9l5.85-24.15h8.83l5.85,24.15,4.34-24.15Z"/><path class="cls-3" d="M275.08,51.07a12,12,0,0,1,4.86,4.7,14.07,14.07,0,0,1,1.77,7.17,14.12,14.12,0,0,1-1.77,7.17,11.92,11.92,0,0,1-4.86,4.69,15.91,15.91,0,0,1-14,0,11.88,11.88,0,0,1-4.89-4.69,14.12,14.12,0,0,1-1.77-7.17,14.07,14.07,0,0,1,1.77-7.17,11.9,11.9,0,0,1,4.89-4.7,16,16,0,0,1,14,0Zm-10.9,7a6.81,6.81,0,0,0-1.58,4.84,6.7,6.7,0,0,0,1.58,4.81,5.18,5.18,0,0,0,3.89,1.65,5.08,5.08,0,0,0,3.87-1.65,6.74,6.74,0,0,0,1.56-4.81,6.85,6.85,0,0,0-1.56-4.84,5.06,5.06,0,0,0-3.87-1.67A5.17,5.17,0,0,0,264.18,58.1Z"/><path class="cls-3" d="M294.92,41.19V76.1h-8.07V41.19Z"/><path class="cls-3" d="M316.62,50.81a8,8,0,0,1,3.16,3.73V41.19h8.06V76.1h-8.06V71.33a7.94,7.94,0,0,1-3.16,3.73,9.57,9.57,0,0,1-5.19,1.37,10.62,10.62,0,0,1-5.83-1.63,11.15,11.15,0,0,1-4.06-4.69,16.31,16.31,0,0,1-1.48-7.17,16.26,16.26,0,0,1,1.48-7.2,11.27,11.27,0,0,1,4.06-4.67,10.7,10.7,0,0,1,5.83-1.62A9.56,9.56,0,0,1,316.62,50.81Zm-6.77,7.41a6.64,6.64,0,0,0-1.58,4.72,6.65,6.65,0,0,0,1.58,4.72A5.42,5.42,0,0,0,314,69.35a5.48,5.48,0,0,0,4.18-1.74,6.59,6.59,0,0,0,1.62-4.67,6.6,6.6,0,0,0-1.62-4.7A5.53,5.53,0,0,0,314,56.52,5.43,5.43,0,0,0,309.85,58.22Z"/><path class="cls-4" d="M390.07,42.75l-8,33.35h-10l-5.33-22.31L361.38,76.1h-10l-8-33.35h8.78l4.29,24.15,5.85-24.15h8.82L377,66.9l4.34-24.15Z"/><path class="cls-4" d="M420,64.4H401.76a6.13,6.13,0,0,0,1.51,4.27,4.88,4.88,0,0,0,3.5,1.3,4.77,4.77,0,0,0,3-.9,4.22,4.22,0,0,0,1.55-2.31h8.54a11.15,11.15,0,0,1-2.26,5,12.06,12.06,0,0,1-4.44,3.44,15.12,15.12,0,0,1-12.85-.38,11.66,11.66,0,0,1-4.7-4.69,14.62,14.62,0,0,1-1.69-7.17,14.79,14.79,0,0,1,1.67-7.2,11.55,11.55,0,0,1,4.7-4.67,15.53,15.53,0,0,1,13.77,0,11.35,11.35,0,0,1,4.6,4.51,13.42,13.42,0,0,1,1.63,6.67A11,11,0,0,1,420,64.4Zm-9.32-7.29a5.14,5.14,0,0,0-3.56-1.3,5.3,5.3,0,0,0-3.68,1.33A5.56,5.56,0,0,0,401.81,61H412.1A4.86,4.86,0,0,0,410.7,57.11Z"/><path class="cls-4" d="M447.64,51.07a11.2,11.2,0,0,1,4.06,4.67,16.26,16.26,0,0,1,1.49,7.2,16.31,16.31,0,0,1-1.49,7.17,11.08,11.08,0,0,1-4.06,4.69,10.59,10.59,0,0,1-5.82,1.63,9.52,9.52,0,0,1-5.19-1.37,7.88,7.88,0,0,1-3.16-3.73V76.1H425.4V41.19h8.07V54.54a8,8,0,0,1,3.16-3.73,9.51,9.51,0,0,1,5.19-1.36A10.67,10.67,0,0,1,447.64,51.07Zm-12.59,7.17a6.56,6.56,0,0,0-1.63,4.7,6.55,6.55,0,0,0,1.63,4.67,5.94,5.94,0,0,0,8.35,0A6.7,6.7,0,0,0,445,62.94a6.68,6.68,0,0,0-1.58-4.72,6,6,0,0,0-8.35,0Z"/></g></g></svg>